<svg width="277" height="337" viewBox="0 0 277 337" fill="none" xmlns="http://www.w3.org/2000/svg">
  <g clip-path="url(#clip0_157_19)">
    <path d="M167.4 255.266C166.002 247.88 164.755 241.326 163.639 235.159C162.816 231.264 162.123 227.236 161.547 223.048C159.426 209.991 157.883 197.37 156.684 180.234C157.496 177.698 158.32 175.333 159.168 173.099C159.184 171.629 159.205 170.141 159.23 168.635C157.457 172.822 155.719 177.256 153.989 181.962C151.857 178.646 149.728 175.514 147.593 172.553L144.424 174.618C145.158 176.078 145.771 177.578 146.242 179.137C147.54 181.546 148.865 184.812 150.281 189.011C155.086 198.466 158.329 207.427 159.369 216.25C162.078 226.973 163.696 239.794 167.4 255.266Z" fill="#E8C184"/>
    <path d="M153.989 181.962C155.719 177.256 157.457 172.822 159.23 168.635C159.25 167.41 159.273 166.173 159.299 164.923L147.593 172.553C149.728 175.514 151.857 178.646 153.989 181.962Z" fill="#E8C184"/>
    <path d="M203.924 305.596C188.747 292.326 178.809 278.53 167.4 255.266C163.696 239.794 162.078 226.973 159.369 216.25C164.988 242.832 159.039 271.606 220.111 320.13C221.559 321.281 223.044 322.442 224.569 323.615C223.248 322.464 221.902 321.317 220.55 320.176C214.618 315.174 208.552 310.282 203.924 305.596Z" fill="#E8C184"/>
    <path d="M146.242 179.137C145.771 177.578 145.158 176.078 144.424 174.618L143.006 172.07C146.472 176.509 148.179 184.877 150.281 189.011C148.865 184.812 147.54 181.546 146.242 179.137Z" fill="#E8C184"/>
    <path d="M156.684 180.234C157.883 197.37 159.426 209.991 161.547 223.048C159.566 208.648 158.962 192.36 159.168 173.099C158.32 175.333 157.496 177.698 156.684 180.234Z" fill="#E8C184"/>
    <path d="M224.569 323.615C223.044 322.442 221.559 321.281 220.111 320.13L219.962 319.612C220.916 320.835 221.383 322.022 221.469 323.944C221.474 324.038 221.476 324.085 221.475 324.142C221.474 324.2 221.473 324.234 221.468 324.293C221.463 324.349 221.448 324.447 221.42 324.643C221.261 325.745 221.583 326.043 222.266 326.39C223.474 326.657 224.25 326.755 225.603 326.172C225.82 326.079 225.928 326.033 226.09 325.921C226.201 325.845 226.389 325.676 226.476 325.573C226.604 325.424 226.663 325.319 226.782 325.108C227.473 323.878 227.608 322.951 227.205 321.698C227.132 321.471 227.096 321.358 226.973 321.156C226.895 321.028 226.682 320.777 226.569 320.679C226.389 320.525 226.287 320.473 226.083 320.368C224.837 319.726 224.152 319.97 223.096 320.444L222.894 320.423L220.55 320.176C221.902 321.317 223.248 322.464 224.569 323.615Z" fill="#E8C184"/>
    <path d="M224.778 321.627C224.211 321.23 223.651 320.836 223.096 320.444M167.4 255.266C166.002 247.88 164.755 241.326 163.639 235.159M167.4 255.266C163.696 239.794 162.078 226.973 159.369 216.25M167.4 255.266C178.809 278.53 188.747 292.326 203.924 305.596M241.204 93.5945C243.195 95.7511 243.681 96.9792 242.618 99.2734C242.618 99.2734 241.267 102.557 235.867 106.105C230.466 109.653 190.773 124.466 179.63 138.907C170.098 151.26 164.192 159.879 159.168 173.099M241.204 93.5945C241.445 88.8771 239.548 87.0382 235.68 83.9644C236.843 77.8716 235.025 75.8514 234.135 74.7524C231.87 71.9555 230.227 71.5381 226.544 70.4353C223.67 69.8268 222.461 69.0968 220.838 67.3218C216.798 62.9374 213.934 61.4271 208.641 59.0013C206.952 53.454 205.079 51.1791 199.741 48.0108C194.555 41.241 189.143 39.723 181.456 40.8298C180.457 40.9736 179.958 41.0455 179.571 40.9461C179.21 40.8534 178.932 40.6962 178.666 40.4348C178.381 40.1547 178.193 39.7096 177.817 38.8195C173.42 28.398 170.205 25.2287 160.789 24.7251C160.324 24.7003 160.092 24.6879 159.849 24.7355C159.643 24.7758 159.417 24.8601 159.235 24.9648C159.02 25.0885 158.848 25.2554 158.503 25.5892C150.287 33.5382 143.778 41.8763 139.076 41.6346C123.228 34.8671 121.102 37.5987 120.102 45.1706C121.572 55.5851 122.532 61.3534 126.492 70.4772C130.554 82.5943 131.78 89.622 130.747 96.5644C130.414 98.8046 129.846 101.036 129.062 103.426C126.686 105.499 124.344 103.918 119.594 98.9382C119.391 98.7253 119.29 98.6189 119.196 98.4981C119.114 98.3927 119.036 98.2758 118.969 98.1603C118.892 98.028 118.83 97.8898 118.706 97.6134C115.043 89.4618 112.929 84.6405 110.947 74.8764C108.851 64.1642 107.796 60.888 106.563 58.9143C105.994 58.004 105.71 57.5488 105.633 57.4098C105.516 57.1989 105.542 57.2507 105.441 57.0321C105.374 56.8879 105.306 56.7186 105.17 56.3798C103.172 51.4073 101.732 48.5336 97.2548 47.2941C90.6492 45.3691 88.067 43.8856 83.3047 41.3031C73.9949 40.0423 70.5 41 67.7074 46.1996C66.5 49.5 64.0444 52.3499 61.4804 57.6112C60.6277 64.3426 58.4608 66.8642 50.7781 68.5524C44.4943 71.998 43.1863 74.2045 44.2107 78.42C45.7828 86.3308 45.2336 89.6817 42.5383 94.3323C39.808 97.8058 39.5586 99.1707 39.268 101.53C38.2538 106.328 36.9173 108.842 32.5438 112.889C26.1435 119.762 28.6972 127.297 44.5587 127.726C81.6278 128.764 96.2984 134.366 129.593 155.768C135.521 162.403 141.159 168.115 144.424 174.618M241.204 93.5945C195.907 111.392 176.031 128.941 159.23 168.635M29.8231 119.641C88.295 123.742 118.562 132.287 147.593 172.553M163.639 235.159C162.816 231.264 162.123 227.236 161.547 223.048M163.639 235.159C162.884 230.991 162.189 226.999 161.547 223.048M163.639 235.159C169.321 262.053 181.22 282.604 203.924 305.596M161.547 223.048C159.426 209.991 157.883 197.37 156.684 180.234C157.496 177.698 158.32 175.333 159.168 173.099M161.547 223.048C159.566 208.648 158.962 192.36 159.168 173.099M159.168 173.099C159.184 171.629 159.205 170.141 159.23 168.635M159.23 168.635C157.457 172.822 155.719 177.256 153.989 181.962C151.857 178.646 149.728 175.514 147.593 172.553M159.23 168.635C159.25 167.41 159.273 166.173 159.299 164.923L147.593 172.553M147.593 172.553L144.424 174.618M144.424 174.618C145.158 176.078 145.771 177.578 146.242 179.137C147.54 181.546 148.865 184.812 150.281 189.011M144.424 174.618L143.006 172.07C146.472 176.509 148.179 184.877 150.281 189.011M150.281 189.011C155.086 198.466 158.329 207.427 159.369 216.25M150.281 189.011C152.51 195.625 156.453 204.71 159.369 216.25M159.369 216.25C164.988 242.832 159.039 271.606 220.111 320.13M203.924 305.596C208.552 310.282 214.618 315.174 220.55 320.176M203.924 305.596C209.498 310.469 215.777 315.271 223.096 320.444M220.111 320.13C221.559 321.281 223.044 322.442 224.569 323.615C223.248 322.464 221.902 321.317 220.55 320.176M220.111 320.13L219.962 319.612C220.916 320.835 221.383 322.022 221.469 323.944C221.474 324.038 221.476 324.085 221.475 324.142C221.474 324.2 221.473 324.234 221.468 324.293C221.463 324.349 221.448 324.447 221.42 324.643C221.261 325.745 221.583 326.043 222.266 326.39C223.474 326.657 224.25 326.755 225.603 326.172C225.82 326.079 225.928 326.033 226.09 325.921C226.201 325.845 226.389 325.676 226.476 325.573C226.604 325.424 226.663 325.319 226.782 325.108C227.473 323.878 227.608 322.951 227.205 321.698C227.132 321.471 227.096 321.358 226.973 321.156C226.895 321.028 226.682 320.777 226.569 320.679C226.389 320.525 226.287 320.473 226.083 320.368C224.837 319.726 224.152 319.97 223.096 320.444M220.111 320.13L220.55 320.176M223.096 320.444L222.894 320.423L220.55 320.176" stroke="#E8C184" stroke-width="3" stroke-linecap="round" stroke-linejoin="round"/>
    <path d="M106 57.5C110.702 63.6848 112.653 71.1568 115.303 75.5C116.729 77.8372 118.358 79.2683 120.727 79.1052C121.243 79.0697 121.767 78.9019 122.093 78.5008C125.164 74.7311 117.677 58.4571 119.5 45.5" stroke="#E8C184" stroke-width="2" stroke-linecap="round" stroke-linejoin="round"/>
    <path d="M162.439 163.745C155.351 169.827 150.604 171.207 139.488 166.863L150.377 178.063L162.439 163.745Z" fill="#E8C184" stroke="#E8C184" stroke-width="2" stroke-linecap="round"/>
    <path d="M234.658 79.3315C193.601 100.178 176.322 122.511 153.91 177.931M153.91 177.931C166.855 116.95 191.191 95.8785 223.011 70.566M153.91 177.931C162.163 126.286 172.056 98.8333 204.636 54.0548M153.91 177.931C156.932 151.836 161.162 131.195 170.961 101.796C178.076 62.9753 181.029 53.718 192.7 43.248M153.91 177.931C156.997 123.493 161.291 93.3189 178.882 40.7901M153.91 177.931C153.559 109.52 156.844 37.314 163.883 25.6393M153.91 177.931C152.357 125.531 149.682 95.9579 138.971 42.6284M153.91 177.931C147.232 148.418 142.121 132.209 128.46 104.368M153.91 177.931C154.581 168.352 112.631 108.368 103.777 85.6855M153.91 177.931C107.092 114.461 82.4506 88.0595 45.7815 82.6064M153.91 177.931C104.38 129.089 75.5054 97.8414 40.4714 99.6447M153.91 177.931C114.685 142.156 98.8152 113.708 34.6372 112.103M66.6873 51.1192C89.6273 65.7694 100.035 72.317 103.777 85.6855M103.777 85.6855C86.249 77.8159 76.7381 73.867 61.0099 62.0858" stroke="#E8C184" stroke-width="2" stroke-linecap="round"/>
    <path d="M123.215 39.4642C141.072 87.8262 147.288 116.618 153.202 170.316C149.537 154.473 149.378 149.301 147.571 142.575C145.764 135.849 145.868 134.855 142.229 126.428C141.455 124.363 140.892 122.901 140.429 121.737C137.564 114.52 137.021 106.466 135.99 98.77C134.364 86.6458 128.906 71.1367 124.528 65.2427" stroke="#E8C184" stroke-width="2" stroke-linecap="round"/>
    <path d="M215.734 63.2655C177.861 97.0523 167.411 123.503 153.333 173.849C167.954 116.06 171.536 86.1626 199.192 48.4552M172.756 32.1023C156.759 89.959 155.968 121.839 152.811 178.821M152.811 178.821C153.277 124.122 154.958 93.8583 148.104 37.0526M152.811 178.821C149.447 124.307 146.641 93.754 131.276 39.3059M152.811 178.821C149.674 166.609 150.208 162.846 139.719 140.744C136.668 134.09 131.972 126.59 117.311 105.207C107.276 83.1845 102.324 70.7126 95.1613 48.079M152.811 178.821C124.082 126.462 109.042 96.2026 49.0773 70.3841M152.811 178.821C116.597 136.084 100.537 106.239 43.7941 91.95" stroke="#E8C184" stroke-linecap="round"/>
    <path d="M73.255 41.2516C92.4343 57.2701 99.1766 66.8551 103.333 85.136M56.5095 66.6403C118.812 100.55 127.337 129.837 150.507 172.043" stroke="#E8C184" stroke-width="0.5"/>
    <path d="M117.545 98.1934C125.319 105.546 144.351 139.723 148.883 168.353" stroke="#E8C184" stroke-width="0.5"/>
    <path d="M130.631 98.0603C130.685 107.116 131.367 111.852 134.612 117.583C132.025 112.619 130.265 108.272 125.921 104.604L129.952 104.525L130.631 98.0603Z" stroke="#E8C184" stroke-width="2" stroke-linejoin="round"/>
    <path d="M237.957 86.2144L235.392 81.9227C235.68 83.9641 227.523 90.6232 222.547 94.1193C227.494 90.999 235.131 84.409 237.957 86.2144Z" fill="#E8C184"/>
    <path d="M153.883 173.404C175.135 130.051 194.855 111.016 222.547 94.1193M222.547 94.1193C227.494 90.999 235.131 84.409 237.957 86.2144L235.392 81.9227C235.68 83.9641 227.523 90.6232 222.547 94.1193Z" stroke="#E8C184" stroke-width="0.5" stroke-linecap="round"/>
    <path d="M149.797 154.875C149.378 158.777 149.72 160.397 147.077 161.628C147.837 168.746 146.612 172.222 145.718 174.557L153.256 179.371C155.208 173.233 155.965 169.776 154.928 163.459C155.369 159.459 153.787 157.708 149.797 154.875Z" fill="#E8C184" stroke="#E8C184" stroke-width="2" stroke-linecap="round"/>
    <path d="M110 66C118.423 79.3828 122.712 87.851 129 106M121.5 60C127.5 92.5 135.522 133.449 154 172" stroke="#E8C184" stroke-linejoin="round"/>
  </g>
  <defs>
    <clipPath id="clip0_157_19">
      <rect width="312" height="245" fill="white" transform="translate(276.811 26.3433) rotate(96)"/>
    </clipPath>
  </defs>
</svg>
